<svg xmlns="http://www.w3.org/2000/svg" width="40" height="40" viewBox="0 0 40 40" fill="none">
  <circle cx="20" cy="20" r="18" fill="#3B82F6" />
  <circle cx="20" cy="20" r="14" fill="#1E40AF" />
  <path d="M14 16C14 14.8954 14.8954 14 16 14H24C25.1046 14 26 14.8954 26 16V24C26 25.1046 25.1046 26 24 26H16C14.8954 26 14 25.1046 14 24V16Z" fill="#60A5FA" />
  <path d="M17 20H23M20 17V23" stroke="white" stroke-width="2" stroke-linecap="round" />
  <path d="M12 15L10 13M28 15L30 13M12 25L10 27M28 25L30 27" stroke="#93C5FD" stroke-width="1.5" stroke-linecap="round" />
</svg>